<svg width="129" height="90" viewBox="0 0 129 90" fill="none" xmlns="http://www.w3.org/2000/svg">
<path d="M115.903 75.0252L117.12 76.226L118.585 78.3926L119.108 83.9526C119.114 84.6782 119.602 85.4004 120.327 85.3952L120.583 87.3286C120.59 88.2961 121.562 89.0149 122.526 88.766C122.768 88.7643 123.008 88.5207 123.25 88.5189C123.736 88.9992 124.461 88.994 125.185 88.7469C126.389 88.2545 127.106 87.0398 126.857 86.074L124.627 78.3492C124.625 78.1073 124.625 78.1073 124.625 78.1073C124.625 78.1073 124.625 78.1073 124.623 77.8654C124.623 77.8654 124.623 77.8654 124.621 77.6235C124.621 77.6235 124.621 77.6235 124.378 77.3833L119.263 71.8563C118.533 71.1359 117.325 71.1446 116.363 71.8772C115.404 72.8517 115.173 74.3048 115.903 75.0252Z" fill="#FFAE80"/>
<path d="M96.7641 68.6329L100.172 71.995C100.902 72.7155 101.874 73.4342 103.085 73.9093L105.994 75.098C106.237 75.3381 106.721 75.3346 106.964 75.5748L111.832 80.3779C112.562 81.0983 113.77 81.0897 114.73 80.1151C115.448 79.1424 115.681 77.9312 114.951 77.2107L111.545 74.0904L116.145 75.2669L121.733 79.3391L124.68 85.8494C125.17 86.8135 126.38 87.0466 127.343 86.5559C128.304 85.8233 128.779 84.6104 128.53 83.6445L124.85 75.9301C124.85 75.9301 120.954 71.8457 119.737 70.6449C119.494 70.4048 119.009 70.1664 118.765 69.9262C117.065 68.7289 112.453 65.8592 107.852 64.6827L102.275 62.0619L96.7641 68.6329Z" fill="#FFAE80"/>
<path d="M23.3987 3.61363C27.7676 6.24318 30.6935 9.85069 34.5878 13.6932C34.8312 13.9333 35.318 14.4136 35.5614 14.6538C41.1577 19.9354 52.1139 31.2261 52.1139 31.2261C52.1139 31.2261 90.9438 53.9279 107.441 62.7598L89.3912 73.2913C74.5999 66.3824 46.4862 55.215 40.4118 50.6625C29.2349 42.2762 18.2891 32.4368 6.86528 23.3266C3.70465 20.6883 1.01517 16.3534 0.260661 12.2465C0.0103161 11.0388 0.00336399 10.0712 0.238067 9.1019C0.936961 5.46834 3.81942 3.02861 7.67895 2.03327C12.7415 0.303573 18.5447 0.745675 23.3987 3.61363Z" fill="#EA4A49"/>
</svg>
