<svg width="219" height="438" viewBox="0 0 219 438" fill="none" xmlns="http://www.w3.org/2000/svg">
<path d="M88.7417 59.4087L89.9511 58.2004L92.1282 56.7504L97.6918 56.2671C98.4175 56.2671 99.1431 55.7838 99.1431 55.0588L101.078 54.8171C102.046 54.8171 102.772 53.8505 102.53 52.8838C102.53 52.6422 102.288 52.4005 102.288 52.1589C102.772 51.6755 102.772 50.9506 102.53 50.2256C102.046 49.0173 100.836 48.2923 99.8688 48.534L92.1282 50.7089C91.8863 50.7089 91.8863 50.7089 91.8863 50.7089C91.8863 50.7089 91.8863 50.7089 91.6444 50.7089C91.6444 50.7089 91.6444 50.7089 91.4025 50.7089C91.4025 50.7089 91.4025 50.7089 91.1606 50.9506L85.597 56.0254C84.8713 56.7504 84.8713 57.9587 85.597 58.9253C86.5646 59.8919 88.016 60.1336 88.7417 59.4087Z" fill="#FFAE80"/>
<path d="M82.2109 78.5002L85.5975 75.1169C86.3232 74.392 87.0489 73.4253 87.5327 72.217L88.7422 69.3171C88.9841 69.0754 88.9841 68.5921 89.226 68.3504L94.0639 63.5172C94.7896 62.7922 94.7896 61.5839 93.822 60.6173C92.8544 59.8923 91.6449 59.6506 90.9192 60.3756L87.7746 63.7589L88.984 59.1673L93.0963 53.6091L99.6275 50.7092C100.595 50.2259 100.837 49.0175 100.353 48.0509C99.6275 47.0843 98.418 46.6009 97.4504 46.8426L89.7097 50.4675C89.7097 50.4675 85.5975 54.3341 84.388 55.5424C84.1461 55.7841 83.9042 56.2674 83.6623 56.509C82.4528 58.2007 79.5501 62.7922 78.3406 67.3838L75.6797 72.942L82.2109 78.5002Z" fill="#FFAE80"/>
<path d="M16.6672 151.396C19.3281 147.046 22.9565 144.146 26.8269 140.279C27.0688 140.038 27.5526 139.554 27.7945 139.313C33.1162 133.755 44.4853 122.88 44.4853 122.88C44.4853 122.88 67.4655 84.214 76.4157 67.781L86.8173 85.9056C79.8023 100.647 68.4331 128.68 63.8371 134.721C55.3707 145.838 45.4529 156.712 36.2609 168.07C33.6 171.212 29.2459 173.87 25.1336 174.595C23.9241 174.837 22.9565 174.837 21.989 174.595C18.3605 173.87 15.9415 170.97 14.974 167.104C13.2807 162.029 13.7645 156.229 16.6672 151.396Z" fill="#EA4A49"/>
<path d="M144.626 249.946C145.351 251.154 145.11 253.329 145.11 254.779C144.626 258.887 143.658 261.062 142.207 264.445C140.513 268.312 131.805 263.479 131.563 262.754C131.321 262.029 131.563 261.062 132.289 260.579C133.982 259.37 136.401 261.545 137.853 260.095C138.336 259.612 138.336 258.887 138.578 258.162C138.82 256.47 138.336 254.296 136.885 253.571C135.917 253.087 134.466 253.329 133.257 253.329C130.112 253.571 125.758 250.671 124.548 247.771C123.339 244.871 125.758 242.212 128.177 240.279C129.144 239.313 130.596 238.829 132.047 239.071C132.773 239.313 143.658 248.496 144.626 249.946Z" fill="#FFAE80"/>
<path d="M27.0605 433.85C27.0605 434.091 27.0605 434.575 27.0605 434.816H51.9759V434.333C51.9759 434.091 51.9759 434.091 51.9759 433.85V433.608C51.734 432.4 51.4921 431.192 51.2502 430.225C50.0407 426.358 47.1379 425.15 43.7514 424.667C42.5419 424.425 41.3324 424.425 39.8811 424.425H38.9135C33.108 424.425 28.27 424.908 27.3024 430.95C27.0605 432.158 27.0605 432.883 27.0605 433.85Z" fill="#212121"/>
<path d="M26.8184 433.85L27.0603 435.058V437.716H51.9756L51.7337 435.058V434.575V434.091V433.85H26.8184Z" fill="#1D1715"/>
<path d="M79.7957 432.4C79.7957 432.883 79.7957 433.366 79.7957 433.85V434.816H119.951C119.951 434.333 119.951 434.091 119.709 433.85C118.499 428.05 111.242 425.15 103.26 423.942C96.9704 422.975 90.4391 423.217 85.3593 423.942C83.666 424.183 82.2147 424.425 81.0052 424.908C80.5214 425.15 79.3119 425.392 79.7957 432.4Z" fill="#1D1715"/>
<path d="M79.7969 433.849V434.816L80.0388 437.716H120.194L119.952 434.816V433.849H79.7969Z" fill="#16191E"/>
<path d="M25.1278 429.017C25.1278 429.983 25.8535 430.708 27.3049 431.192C29.482 431.916 33.1104 432.158 36.9808 432.158C37.7065 432.158 38.4321 432.158 39.1578 431.916C43.2701 431.675 47.6242 430.95 51.0108 430.225C52.2203 429.983 53.1878 429.742 53.9135 429.5L56.0906 368.843V366.426L57.0582 338.877L65.0408 285.711V284.503L73.749 337.427L73.9909 338.394C73.9909 351.202 73.5071 364.735 73.2652 378.268C73.0233 399.292 73.5072 419.35 77.8613 433.125C78.1032 432.883 78.3451 432.883 78.587 432.883C78.8289 432.641 79.3127 432.641 79.5546 432.4C81.4897 431.675 83.6668 430.95 86.0858 430.466C91.8913 428.775 98.6644 427.325 103.502 423.942V423.7L101.083 340.085L98.4225 293.928L97.9387 287.161L97.213 272.903V272.42L96.7292 263.479L96.0035 252.12L95.7616 246.562V244.387L95.5197 240.762L95.2778 237.138L95.0359 232.788H27.063C26.8211 234.479 26.8211 235.929 26.8211 237.621C26.8211 238.829 26.8211 239.796 26.8211 241.004C26.8211 245.112 27.063 248.979 27.3049 252.845C27.3049 253.57 27.5468 254.054 27.5468 254.779C28.0306 258.645 28.7563 262.512 29.482 266.137C29.7239 267.345 29.9658 268.312 30.2077 269.52C30.6915 271.212 31.1753 272.903 31.659 274.595C31.659 275.803 31.4172 277.012 31.4172 278.462C31.4172 280.153 31.1753 281.603 31.1753 283.295L30.9334 290.061C30.9334 292.236 30.6915 294.411 30.6915 296.345C29.9658 310.361 29.482 323.894 29.482 334.044C29.482 335.01 29.482 335.977 29.482 336.944C29.482 340.81 29.2401 346.852 28.7563 354.343C26.8211 378.751 22.9508 416.934 25.1278 429.017Z" fill="#5E4A4C"/>
<path opacity="0.3" d="M27.3047 254.779C27.7885 258.646 28.5142 262.512 29.2399 266.137C29.4818 267.345 29.7237 268.312 29.9656 269.52C30.4494 271.212 30.9331 272.904 31.4169 274.595C31.175 277.495 31.175 280.395 30.9331 283.053L30.6912 289.82C30.6912 291.995 30.4493 294.17 30.4493 296.103C36.9806 295.62 44.9631 295.62 53.4295 295.861C56.5742 301.903 56.0904 309.395 55.3647 316.403C55.1228 319.303 54.8809 322.444 53.6714 325.103C52.4619 327.761 50.5267 330.419 47.8659 331.386C50.7686 334.044 52.4619 337.911 53.1876 341.535C53.9133 345.402 53.9133 349.269 54.3971 353.135C54.639 358.452 55.3647 363.768 56.0904 368.843V366.427L57.058 338.877L65.0405 285.712V284.503L73.7488 337.427L73.9907 338.394C73.9907 351.202 73.5069 364.977 73.265 378.268C73.265 378.51 73.265 378.751 73.265 378.993C73.7488 373.918 74.2326 368.843 74.4745 363.527C74.4745 361.11 74.7164 358.693 75.4421 356.519C75.9259 355.069 76.6516 353.619 77.1354 352.169C78.8286 346.852 78.3448 340.811 81.2476 335.977C81.4895 335.494 81.7314 335.011 81.7314 334.527C81.7314 334.044 81.4895 333.319 81.4895 332.836C77.1354 321.236 75.684 308.428 76.8935 296.103C85.1179 296.103 92.6167 295.378 98.6641 293.928L98.1803 287.162L97.2128 272.42L96.729 263.479L96.0033 252.121C83.9085 251.879 71.5717 253.812 59.4769 254.296C48.5916 255.262 37.9481 254.779 27.3047 254.779Z" fill="#1D1D1B"/>
<path d="M55.1211 130.323L61.8942 129.356L62.8618 135.881L55.6049 135.64L55.1211 130.323Z" fill="#EBB677"/>
<path d="M35.2857 136.123L34.0762 114.857C43.2683 114.615 55.3631 113.89 57.5402 113.407C57.5402 113.407 58.5078 128.873 59.4754 135.398C63.5876 152.314 43.5102 154.731 35.2857 136.123Z" fill="#FFAE80"/>
<path d="M31.4157 118.724C29.2386 114.857 28.9967 112.924 28.0291 108.574C25.6102 88.0329 37.705 88.9995 45.4457 87.7912C54.3959 86.8246 63.8299 91.6578 66.2488 105.191C66.0069 106.641 65.5231 107.849 65.5231 107.849L69.6354 115.099C70.361 116.307 69.8773 117.757 68.4259 118.241L66.4907 118.965C66.7326 120.415 67.7002 126.215 67.7002 126.215C68.184 129.599 67.4583 135.398 62.6204 135.64C60.6852 135.398 56.0892 132.257 53.6702 119.932C50.5255 120.174 33.109 121.624 31.4157 118.724Z" fill="#FFAE80"/>
<path d="M35.046 127.665C59.4776 130.323 53.1883 119.207 53.4302 116.79C53.4302 116.065 57.3005 116.065 57.3005 115.34C57.0586 102.774 51.9788 95.0407 62.1385 95.0407C65.7669 93.8324 66.2507 81.5077 43.0286 85.6159C32.869 87.5492 25.6121 94.3157 25.3702 104.707C24.8864 114.857 30.6919 126.215 35.046 127.665Z" fill="black"/>
<path d="M48.1064 115.099C48.5902 118.241 51.2511 121.624 52.9443 121.382C54.6376 121.14 54.1538 118.482 53.67 115.099C53.4281 112.924 52.9444 110.024 51.2511 109.541C49.5578 109.541 47.3807 110.507 48.1064 115.099Z" fill="#FFAE80"/>
<path d="M14 160.289C14 160.773 14 161.256 14 161.739V161.981L15.2095 177.689V178.172C15.2095 178.172 21.2569 234.238 19.0798 269.762C18.8379 274.837 23.1921 279.187 28.5138 278.462C29.4814 278.462 30.2071 278.22 31.1747 278.22C40.3667 277.495 52.9454 278.462 65.524 279.912C69.1524 280.395 73.0228 280.878 76.6512 281.362C85.3595 282.57 93.584 276.287 94.0678 267.345V267.104C94.0678 266.862 94.0678 266.62 94.0678 266.379C94.7935 260.095 95.0354 253.571 95.0354 246.562V244.388C95.0354 242.454 95.0354 240.763 95.0354 238.829C95.0354 236.654 94.7935 234.479 94.7935 232.546C94.7935 231.096 94.5516 229.405 94.5516 227.955C94.3097 226.021 94.3097 224.33 94.0678 222.638C94.0678 221.913 93.8259 220.946 93.8259 220.221C93.8259 219.255 93.584 218.288 93.584 217.321C93.584 216.355 93.3421 215.63 93.3421 214.663C93.3421 213.697 93.1002 212.972 93.1002 212.005V211.763C93.1002 211.038 92.8583 210.313 92.8583 209.347C92.8583 208.38 92.6164 207.655 92.6164 206.688C92.1326 202.097 91.4069 197.747 90.9231 193.397C90.1974 188.564 89.4718 183.972 88.7461 179.864C88.2623 177.689 88.0204 175.514 87.5366 173.581C86.8109 169.956 86.3271 166.814 85.6014 163.914C85.1176 161.014 84.6338 158.839 84.15 157.148C83.6662 154.731 83.1824 153.281 83.1824 153.281C80.7635 148.931 81.4892 145.548 76.8931 143.131C76.8931 143.131 76.6512 143.131 76.4093 142.89C75.9255 142.648 75.1998 142.406 74.4742 142.165H74.2323C69.3944 140.715 60.2023 137.815 60.2023 137.815H59.7185H59.4766L36.4964 139.265L32.1422 139.506L21.7407 145.548C17.1447 148.69 14 154.248 14 160.289Z" fill="#EA4A49"/>
<path d="M57.0568 133.948C50.7675 132.74 36.7375 133.706 34.5605 134.673L32.8672 139.506C34.5605 142.406 49.3161 142.164 60.6853 137.815L60.2015 136.606C59.7177 135.398 58.5082 134.19 57.0568 133.948Z" fill="#C21E1D"/>
<path opacity="0.3" d="M71.8125 164.398C75.199 187.356 78.3437 210.555 83.9073 233.03C86.8101 244.629 90.1966 255.746 94.3088 266.62C95.0345 268.795 96.0021 270.97 96.9697 273.387V272.904L96.4859 263.962L95.7602 252.604L95.5183 247.046V244.871C95.5183 242.938 95.5183 241.246 95.5183 239.313C95.5183 237.138 95.2764 234.963 95.2764 233.03C95.2764 231.58 95.0345 229.888 95.0345 228.438C94.7926 226.505 94.7926 224.813 94.5507 223.121C94.5507 222.396 94.3088 221.43 94.3088 220.705C94.3088 219.738 94.067 218.771 94.067 217.805C94.067 216.838 93.8251 216.113 93.8251 215.147C93.8251 214.18 93.5832 213.455 93.5832 212.488V212.247C83.9073 197.747 79.5532 180.106 71.8125 164.398Z" fill="#456F96"/>
<path d="M64.7985 144.823C64.0729 145.79 63.831 146.756 63.3472 147.723C62.3796 151.59 62.6215 156.665 64.3148 160.29C64.3148 160.29 64.3148 160.29 64.3148 160.531C65.7661 164.156 67.4594 167.539 68.9108 171.164C69.8784 173.339 70.846 175.514 71.8136 177.931C73.2649 181.072 74.4744 184.456 75.9258 187.597C77.861 191.947 79.7961 196.055 81.7313 200.164C83.9084 204.514 94.0681 216.113 103.744 227.471C104.47 228.196 105.195 229.163 105.679 229.888C110.275 235.205 117.29 245.113 120.435 248.979L136.642 238.829C125.998 223.605 101.083 188.322 101.083 188.322C101.083 188.322 96.2451 173.098 93.8261 166.089C93.5842 165.606 93.5843 165.123 93.3424 164.639C92.1329 161.015 91.1653 157.631 89.7139 154.49C89.2301 153.281 88.5044 152.073 87.7787 150.865C87.7787 150.865 87.7787 150.623 87.5368 150.381C87.0531 149.898 86.8112 149.173 86.3274 148.69C86.3274 148.69 86.3274 148.448 86.0855 148.448C83.1827 145.065 79.0705 142.89 74.7163 141.923C70.6041 141.198 66.9756 141.923 64.7985 144.823Z" fill="#EA4A49"/>
<path opacity="0.3" d="M51.2532 226.746C48.8342 215.388 44.2382 204.513 41.3354 193.155C38.4326 181.797 37.9489 169.231 43.7544 159.081C42.303 172.856 47.6247 186.147 51.0113 199.68C54.8816 215.63 55.8492 232.546 53.6722 248.737C53.1884 241.488 52.7046 233.996 51.2532 226.746Z" fill="#456F96"/>
<path d="M148.738 299.244L146.803 299.727L175.347 416.208L199.294 410.408C208.728 408.233 214.292 399.05 212.115 390.109L208.728 376.334L197.359 330.177L196.633 327.035C191.554 306.252 170.267 293.928 148.738 299.244Z" fill="#5589B9"/>
<path d="M138.093 255.987C138.818 258.645 137.125 261.062 134.464 261.787C131.803 262.512 129.143 260.82 128.659 258.404C127.933 255.745 129.626 253.329 132.287 252.604C134.948 251.879 137.367 253.57 138.093 255.987Z" fill="#4D4D4D"/>
<path d="M172.687 429.258L178.008 428.05L135.918 256.954C135.435 255.504 133.983 254.537 132.532 254.779C131.08 255.262 130.113 256.712 130.597 258.162L172.687 429.258Z" fill="#1D1715"/>
<path d="M195.909 393.25L184.54 395.909C180.911 396.875 177.041 394.7 176.073 391.076L167.849 357.968C166.881 354.343 169.3 350.718 172.929 349.751L184.298 347.093C187.926 346.127 191.797 348.301 192.764 351.926L200.989 385.034C202.198 388.659 199.779 392.284 195.909 393.25Z" fill="#4072A1"/>
<path d="M210.18 347.576L218.405 380.684C219.372 384.309 216.953 387.934 213.325 388.901L212.115 389.142L200.746 342.985L201.956 342.743C205.342 341.777 209.213 343.952 210.18 347.576Z" fill="#4072A1"/>
<path d="M193.97 355.276L169.062 361.362L170.787 368.405L195.694 362.318L193.97 355.276Z" fill="#ECF0F1"/>
<path d="M210.896 351.325L202.906 353.276L204.629 360.318L212.618 358.368L210.896 351.325Z" fill="#ECF0F1"/>
<path d="M184.78 426.358C185.989 431.191 182.844 436.266 177.765 437.474C172.685 438.683 167.605 435.783 166.396 430.95C165.186 426.116 168.331 421.042 173.411 419.833C178.49 418.383 183.57 421.283 184.78 426.358Z" fill="#1D1715"/>
<path d="M180.185 427.324C180.669 429.741 179.218 432.157 176.799 432.882C174.38 433.607 171.719 431.916 171.235 429.499C170.751 427.083 172.203 424.666 174.622 423.941C177.041 423.458 179.46 424.908 180.185 427.324Z" fill="#F6F6F6"/>
<g filter="url(#filter0_d)">
<path d="M149 0.781006H19C10.7157 0.781006 4 7.49674 4 15.781V42.781C4 51.0653 10.7157 57.781 19 57.781H28L48 77.781L68 57.781H149C157.284 57.781 164 51.0653 164 42.781V15.781C164 7.49674 157.284 0.781006 149 0.781006Z" fill="white"/>
<path d="M24.6484 24.3826C23.7526 24.3826 22.8828 24.5805 22.0391 24.9763L21.4766 23.8513C22.3724 23.4138 23.4349 23.1951 24.6641 23.1951C25.7943 23.1951 26.7656 23.4242 27.5781 23.8826C28.3958 24.3409 29.0156 24.9945 29.4375 25.8435C29.8594 26.6925 30.0703 27.6925 30.0703 28.8435C30.0703 30.8018 29.5964 32.307 28.6484 33.3591C27.7005 34.4112 26.3359 34.9373 24.5547 34.9373C23.3724 34.9373 22.375 34.7888 21.5625 34.4919V33.3279C21.9948 33.4373 22.4349 33.5362 22.8828 33.6248C23.3307 33.7133 23.8125 33.7576 24.3281 33.7576C25.7396 33.7576 26.8047 33.3826 27.5234 32.6326C28.2422 31.8774 28.6224 30.7914 28.6641 29.3748H23.0469V28.1873H28.6484C28.5339 26.9945 28.1224 26.0623 27.4141 25.3904C26.7109 24.7185 25.7891 24.3826 24.6484 24.3826ZM33.6719 26.2185V31.6482L33.6172 33.0701L33.5938 33.5154L38.2266 26.2185H39.8438V34.781H38.6328V29.5466L38.6562 28.5154L38.6953 27.4998L34.0703 34.781H32.4531V26.2185H33.6719ZM36.1172 25.0857C35.1536 25.0857 34.4505 24.9008 34.0078 24.531C33.5651 24.156 33.3177 23.5414 33.2656 22.6873H34.4844C34.5312 23.2289 34.6719 23.6065 34.9062 23.8201C35.1458 24.0336 35.5599 24.1404 36.1484 24.1404C36.6849 24.1404 37.0807 24.0258 37.3359 23.7966C37.5964 23.5675 37.7552 23.1977 37.8125 22.6873H39.0391C38.9766 23.5102 38.7135 24.1169 38.25 24.5076C37.7865 24.893 37.0755 25.0857 36.1172 25.0857ZM43.9531 32.9216L44.0703 33.1013C43.9349 33.6222 43.7396 34.2263 43.4844 34.9138C43.2292 35.6065 42.9635 36.2498 42.6875 36.8435H41.7109C41.8516 36.3018 42.0052 35.6326 42.1719 34.8357C42.3438 34.0388 42.4635 33.4008 42.5312 32.9216H43.9531ZM56.4453 27.3279H53.6641V34.781H52.3672V27.3279H49.6172V26.2185H56.4453V27.3279ZM63.4062 34.781L63.1484 33.5623H63.0859C62.6589 34.0987 62.2318 34.4633 61.8047 34.656C61.3828 34.8435 60.8542 34.9373 60.2188 34.9373C59.3698 34.9373 58.7031 34.7185 58.2188 34.281C57.7396 33.8435 57.5 33.2211 57.5 32.4138C57.5 30.6847 58.8828 29.7784 61.6484 29.6951L63.1016 29.6482V29.1169C63.1016 28.4451 62.9557 27.9503 62.6641 27.6326C62.3776 27.3097 61.9167 27.1482 61.2812 27.1482C60.5677 27.1482 59.7604 27.3669 58.8594 27.8044L58.4609 26.8123C58.8828 26.5831 59.3438 26.4034 59.8438 26.2732C60.349 26.143 60.8542 26.0779 61.3594 26.0779C62.3802 26.0779 63.1354 26.3044 63.625 26.7576C64.1198 27.2107 64.3672 27.9373 64.3672 28.9373V34.781H63.4062ZM60.4766 33.8669C61.2839 33.8669 61.9167 33.6456 62.375 33.2029C62.8385 32.7602 63.0703 32.1404 63.0703 31.3435V30.5701L61.7734 30.6248C60.7422 30.6612 59.9974 30.8227 59.5391 31.1091C59.0859 31.3904 58.8594 31.8305 58.8594 32.4294C58.8594 32.8982 59 33.255 59.2812 33.4998C59.5677 33.7445 59.9661 33.8669 60.4766 33.8669ZM72.0391 26.2185H73.4609L69.7656 30.3513L73.7656 34.781H72.25L68.3438 30.4451V34.781H67.0469V26.2185H68.3438V30.3826L72.0391 26.2185ZM78.7812 34.9373C77.5417 34.9373 76.5807 34.557 75.8984 33.7966C75.2214 33.031 74.8828 31.9503 74.8828 30.5544C74.8828 29.1222 75.2266 28.0154 75.9141 27.2341C76.6068 26.4529 77.5911 26.0623 78.8672 26.0623C79.2786 26.0623 79.6901 26.1065 80.1016 26.1951C80.513 26.2836 80.8359 26.3878 81.0703 26.5076L80.6719 27.6091C80.3854 27.4945 80.0729 27.4008 79.7344 27.3279C79.3958 27.2498 79.0964 27.2107 78.8359 27.2107C77.0964 27.2107 76.2266 28.3201 76.2266 30.5388C76.2266 31.5909 76.4375 32.3982 76.8594 32.9607C77.2865 33.5232 77.9167 33.8044 78.75 33.8044C79.4635 33.8044 80.1953 33.6508 80.9453 33.3435V34.4919C80.3724 34.7888 79.651 34.9373 78.7812 34.9373ZM84.2031 26.2185V31.6482L84.1484 33.0701L84.125 33.5154L88.7578 26.2185H90.375V34.781H89.1641V29.5466L89.1875 28.5154L89.2266 27.4998L84.6016 34.781H82.9844V26.2185H84.2031ZM94.4844 32.9216L94.6016 33.1013C94.4661 33.6222 94.2708 34.2263 94.0156 34.9138C93.7604 35.6065 93.4948 36.2498 93.2188 36.8435H92.2422C92.3828 36.3018 92.5365 35.6326 92.7031 34.8357C92.875 34.0388 92.9948 33.4008 93.0625 32.9216H94.4844ZM106.977 27.3279H104.195V34.781H102.898V27.3279H100.148V26.2185H106.977V27.3279ZM113.938 34.781L113.68 33.5623H113.617C113.19 34.0987 112.763 34.4633 112.336 34.656C111.914 34.8435 111.385 34.9373 110.75 34.9373C109.901 34.9373 109.234 34.7185 108.75 34.281C108.271 33.8435 108.031 33.2211 108.031 32.4138C108.031 30.6847 109.414 29.7784 112.18 29.6951L113.633 29.6482V29.1169C113.633 28.4451 113.487 27.9503 113.195 27.6326C112.909 27.3097 112.448 27.1482 111.812 27.1482C111.099 27.1482 110.292 27.3669 109.391 27.8044L108.992 26.8123C109.414 26.5831 109.875 26.4034 110.375 26.2732C110.88 26.143 111.385 26.0779 111.891 26.0779C112.911 26.0779 113.667 26.3044 114.156 26.7576C114.651 27.2107 114.898 27.9373 114.898 28.9373V34.781H113.938ZM111.008 33.8669C111.815 33.8669 112.448 33.6456 112.906 33.2029C113.37 32.7602 113.602 32.1404 113.602 31.3435V30.5701L112.305 30.6248C111.273 30.6612 110.529 30.8227 110.07 31.1091C109.617 31.3904 109.391 31.8305 109.391 32.4294C109.391 32.8982 109.531 33.255 109.812 33.4998C110.099 33.7445 110.497 33.8669 111.008 33.8669ZM122.57 26.2185H123.992L120.297 30.3513L124.297 34.781H122.781L118.875 30.4451V34.781H117.578V26.2185H118.875V30.3826L122.57 26.2185ZM129.312 34.9373C128.073 34.9373 127.112 34.557 126.43 33.7966C125.753 33.031 125.414 31.9503 125.414 30.5544C125.414 29.1222 125.758 28.0154 126.445 27.2341C127.138 26.4529 128.122 26.0623 129.398 26.0623C129.81 26.0623 130.221 26.1065 130.633 26.1951C131.044 26.2836 131.367 26.3878 131.602 26.5076L131.203 27.6091C130.917 27.4945 130.604 27.4008 130.266 27.3279C129.927 27.2498 129.628 27.2107 129.367 27.2107C127.628 27.2107 126.758 28.3201 126.758 30.5388C126.758 31.5909 126.969 32.3982 127.391 32.9607C127.818 33.5232 128.448 33.8044 129.281 33.8044C129.995 33.8044 130.727 33.6508 131.477 33.3435V34.4919C130.904 34.7888 130.182 34.9373 129.312 34.9373ZM134.734 26.2185V31.6482L134.68 33.0701L134.656 33.5154L139.289 26.2185H140.906V34.781H139.695V29.5466L139.719 28.5154L139.758 27.4998L135.133 34.781H133.516V26.2185H134.734ZM144.828 31.6326H144.008L143.609 23.3591H145.227L144.828 31.6326ZM143.469 33.9529C143.469 33.2445 143.781 32.8904 144.406 32.8904C144.708 32.8904 144.94 32.9815 145.102 33.1638C145.268 33.3461 145.352 33.6091 145.352 33.9529C145.352 34.2862 145.268 34.5466 145.102 34.7341C144.935 34.9164 144.703 35.0076 144.406 35.0076C144.135 35.0076 143.911 34.9268 143.734 34.7654C143.557 34.5987 143.469 34.3279 143.469 33.9529Z" fill="#1E0606"/>
</g>
<defs>
<filter id="filter0_d" x="0" y="0.781006" width="168" height="85" filterUnits="userSpaceOnUse" color-interpolation-filters="sRGB">
<feFlood flood-opacity="0" result="BackgroundImageFix"/>
<feColorMatrix in="SourceAlpha" type="matrix" values="0 0 0 0 0 0 0 0 0 0 0 0 0 0 0 0 0 0 127 0"/>
<feOffset dy="4"/>
<feGaussianBlur stdDeviation="2"/>
<feColorMatrix type="matrix" values="0 0 0 0 0 0 0 0 0 0 0 0 0 0 0 0 0 0 0.25 0"/>
<feBlend mode="normal" in2="BackgroundImageFix" result="effect1_dropShadow"/>
<feBlend mode="normal" in="SourceGraphic" in2="effect1_dropShadow" result="shape"/>
</filter>
</defs>
</svg>
